<?xml version="1.0" standalone="no"?>
<!DOCTYPE svg PUBLIC "-//W3C//DTD SVG 20010904//EN"
 "http://www.w3.org/TR/2001/REC-SVG-20010904/DTD/svg10.dtd">
<svg version="1.0" xmlns="http://www.w3.org/2000/svg"
 width="700.000000pt" height="700.000000pt" viewBox="0 0 700.000000 700.000000"
 preserveAspectRatio="xMidYMid meet">
<metadata>
Created by potrace 1.14, written by Peter Selinger 2001-2017
</metadata>
<g transform="translate(0.000000,700.000000) scale(0.100000,-0.100000)"
fill="#000000" stroke="none">
<path d="M1997 6790 c-264 -284 -407 -635 -421 -1028 -4 -106 4 -235 18 -319
3 -18 8 -48 11 -65 35 -203 146 -460 263 -603 130 -160 347 -329 617 -480 174
-97 398 -215 407 -215 6 0 -41 -53 -105 -117 -171 -173 -326 -339 -434 -462
-21 -24 -51 -58 -68 -75 -16 -18 -50 -56 -75 -86 -25 -30 -51 -61 -59 -69 -7
-8 -67 -81 -133 -163 -67 -81 -122 -148 -124 -148 -2 0 0 33 4 73 4 39 7 167
7 282 0 232 -14 311 -75 443 -66 142 -206 307 -350 414 -126 93 -325 182 -452
202 -21 3 -55 9 -75 12 -66 11 -246 8 -315 -5 l-66 -13 -21 -51 c-163 -390
-56 -879 262 -1206 177 -181 392 -261 822 -307 101 -10 117 -13 121 -17 3 -3
-37 -62 -87 -133 -523 -729 -855 -1440 -974 -2086 -23 -122 -23 -137 -7 -186
20 -59 106 -146 177 -178 64 -30 120 -29 216 1 63 20 154 78 181 115 17 24 42
124 53 213 10 81 88 374 146 548 58 176 149 412 209 544 18 38 36 80 42 94 l9
26 28 -33 c26 -29 61 -69 200 -227 25 -27 104 -109 176 -181 233 -231 395
-325 645 -374 116 -23 364 -25 485 -4 307 54 577 197 774 411 74 80 171 212
171 233 0 24 -96 196 -150 269 -80 108 -151 182 -238 251 -43 33 -82 64 -88
69 -20 16 -168 98 -217 120 -110 50 -261 91 -432 116 -67 10 -256 7 -330 -5
-197 -31 -393 -130 -629 -314 -112 -88 -355 -293 -374 -316 -45 -55 111 248
292 565 6 11 19 31 27 45 9 14 43 68 75 120 84 136 254 386 352 520 91 123
273 359 294 381 7 8 31 37 52 64 22 28 43 54 47 58 4 5 65 -63 135 -151 219
-271 327 -387 458 -490 143 -114 263 -174 434 -217 220 -54 473 -55 707 0 335
78 644 283 831 551 l36 52 -31 73 c-213 513 -740 866 -1316 884 -300 9 -559
-91 -909 -348 -107 -80 -108 -78 -11 29 233 258 613 638 900 899 147 135 146
133 210 188 33 29 88 80 121 114 l62 63 172 -65 c193 -74 369 -127 492 -149
120 -21 338 -15 443 13 323 86 631 296 819 559 133 185 228 429 251 648 6 60
6 61 -27 90 -53 47 -171 122 -258 165 -139 69 -284 110 -470 134 -51 6 -244 7
-275 1 -11 -2 -47 -7 -80 -11 -32 -3 -62 -8 -65 -10 -3 -2 -21 -6 -41 -9 -63
-10 -243 -73 -329 -115 -205 -100 -351 -236 -480 -446 -54 -88 -184 -356 -241
-499 -41 -100 -47 -110 -84 -128 -57 -30 -72 -41 -285 -219 -189 -158 -253
-212 -265 -225 -5 -5 -39 -35 -75 -65 -35 -30 -71 -61 -80 -69 -19 -18 -174
-157 -203 -183 -33 -28 -225 -207 -286 -266 -31 -29 -87 -83 -125 -120 l-68
-66 105 205 c186 362 277 585 312 765 108 572 -235 1263 -783 1573 -48 27
-116 62 -152 77 -36 15 -73 31 -82 36 -28 14 -241 69 -269 69 -20 0 -41 -16
-82 -60z"/>
</g>
</svg>
